<?xml version="1.0" encoding="UTF-8" standalone="no"?>
<svg
   xmlns:dc="http://purl.org/dc/elements/1.1/"
   xmlns:cc="http://creativecommons.org/ns#"
   xmlns:rdf="http://www.w3.org/1999/02/22-rdf-syntax-ns#"
   xmlns:svg="http://www.w3.org/2000/svg"
   xmlns="http://www.w3.org/2000/svg"
   xmlns:sodipodi="http://sodipodi.sourceforge.net/DTD/sodipodi-0.dtd"
   xmlns:inkscape="http://www.inkscape.org/namespaces/inkscape"
   inkscape:export-ydpi="384"
   inkscape:export-xdpi="384"
   inkscape:export-filename="D:\projects\firefox-tab-discard\src\icons\firefox_delete_dark_64.png"
   inkscape:version="1.0 (4035a4fb49, 2020-05-01)"
   sodipodi:docname="firefox_delete_dark.svg"
   id="svg6"
   version="1.1"
   viewBox="0 0 16 16"
   height="16"
   width="16">
  <metadata
     id="metadata12">
    <rdf:RDF>
      <cc:Work
         rdf:about="">
        <dc:format>image/svg+xml</dc:format>
        <dc:type
           rdf:resource="http://purl.org/dc/dcmitype/StillImage" />
        <dc:title />
      </cc:Work>
    </rdf:RDF>
  </metadata>
  <defs
     id="defs10" />
  <sodipodi:namedview
     inkscape:current-layer="svg6"
     inkscape:window-maximized="1"
     inkscape:window-y="-8"
     inkscape:window-x="-8"
     inkscape:cy="8.4090562"
     inkscape:cx="10.831288"
     inkscape:zoom="13.876971"
     showgrid="false"
     id="namedview8"
     inkscape:window-height="837"
     inkscape:window-width="1440"
     inkscape:pageshadow="2"
     inkscape:pageopacity="0"
     guidetolerance="10"
     gridtolerance="10"
     objecttolerance="10"
     borderopacity="1"
     bordercolor="#666666"
     pagecolor="#202020"
     inkscape:document-rotation="0" />
  <path
     style="fill:#5b5b66;fill-opacity:1"
     id="path2"
     d="M6.5 12a.5.5 0 0 0 .5-.5v-6a.5.5 0 0 0-1 0v6a.5.5 0 0 0 .5.5zm2 0a.5.5 0 0 0 .5-.5v-6a.5.5 0 0 0-1 0v6a.5.5 0 0 0 .5.5zm2 0a.5.5 0 0 0 .5-.5v-6a.5.5 0 0 0-1 0v6a.5.5 0 0 0 .5.5z"
     fill="context-fill" />
  <path
     style="fill:#5b5b66;fill-opacity:1"
     id="path4"
     d="M14 2h-3.05a2.5 2.5 0 0 0-4.9 0H3a1 1 0 0 0 0 2v9a3 3 0 0 0 3 3h5a3 3 0 0 0 3-3V4a1 1 0 0 0 0-2zM8.5 1a1.489 1.489 0 0 1 1.391 1H7.109A1.489 1.489 0 0 1 8.5 1zM12 13a1 1 0 0 1-1 1H6a1 1 0 0 1-1-1V4h7z"
     fill="context-fill" />
</svg>
